<svg id="visual" viewBox="0 0 900 600" width="900" height="600" xmlns="http://www.w3.org/2000/svg" xmlns:xlink="http://www.w3.org/1999/xlink" version="1.1"><rect x="0" y="0" width="900" height="600" fill="#FFFFFF"></rect><path d="M0 381L21.5 379.7C43 378.3 86 375.7 128.8 362.5C171.7 349.3 214.3 325.7 257.2 306C300 286.3 343 270.7 385.8 286.5C428.7 302.3 471.3 349.7 514.2 354.3C557 359 600 321 642.8 307C685.7 293 728.3 303 771.2 307.8C814 312.7 857 312.3 878.5 312.2L900 312L900 601L878.5 601C857 601 814 601 771.2 601C728.3 601 685.7 601 642.8 601C600 601 557 601 514.2 601C471.3 601 428.7 601 385.8 601C343 601 300 601 257.2 601C214.3 601 171.7 601 128.8 601C86 601 43 601 21.5 601L0 601Z" fill="#ffffff"></path><path d="M0 440L21.5 436.8C43 433.7 86 427.3 128.8 418.2C171.7 409 214.3 397 257.2 397.5C300 398 343 411 385.8 402C428.7 393 471.3 362 514.2 348C557 334 600 337 642.8 354.5C685.7 372 728.3 404 771.2 407.3C814 410.7 857 385.3 878.5 372.7L900 360L900 601L878.5 601C857 601 814 601 771.2 601C728.3 601 685.7 601 642.8 601C600 601 557 601 514.2 601C471.3 601 428.7 601 385.8 601C343 601 300 601 257.2 601C214.3 601 171.7 601 128.8 601C86 601 43 601 21.5 601L0 601Z" fill="#fff6ea"></path><path d="M0 412L21.5 410.8C43 409.7 86 407.3 128.8 421C171.7 434.7 214.3 464.3 257.2 469C300 473.7 343 453.3 385.8 452.2C428.7 451 471.3 469 514.2 474.8C557 480.7 600 474.3 642.8 476.8C685.7 479.3 728.3 490.7 771.2 485C814 479.3 857 456.7 878.5 445.3L900 434L900 601L878.5 601C857 601 814 601 771.2 601C728.3 601 685.7 601 642.8 601C600 601 557 601 514.2 601C471.3 601 428.7 601 385.8 601C343 601 300 601 257.2 601C214.3 601 171.7 601 128.8 601C86 601 43 601 21.5 601L0 601Z" fill="#ffeed5"></path><path d="M0 529L21.5 520.5C43 512 86 495 128.8 495C171.7 495 214.3 512 257.2 521.5C300 531 343 533 385.8 527C428.7 521 471.3 507 514.2 498.2C557 489.3 600 485.7 642.8 484C685.7 482.3 728.3 482.7 771.2 486.5C814 490.3 857 497.7 878.5 501.3L900 505L900 601L878.5 601C857 601 814 601 771.2 601C728.3 601 685.7 601 642.8 601C600 601 557 601 514.2 601C471.3 601 428.7 601 385.8 601C343 601 300 601 257.2 601C214.3 601 171.7 601 128.8 601C86 601 43 601 21.5 601L0 601Z" fill="#ffe6c0"></path></svg>