<svg id="visual" viewBox="0 0 900 600" width="900" height="600" xmlns="http://www.w3.org/2000/svg" xmlns:xlink="http://www.w3.org/1999/xlink" version="1.1"><rect x="0" y="0" width="900" height="600" fill="#FFFFFF"></rect><path d="M0 402L21.5 395.7C43 389.3 86 376.7 128.8 374C171.7 371.3 214.3 378.7 257.2 387.5C300 396.3 343 406.7 385.8 413.2C428.7 419.7 471.3 422.3 514.2 418C557 413.7 600 402.3 642.8 387.7C685.7 373 728.3 355 771.2 359.7C814 364.3 857 391.7 878.5 405.3L900 419L900 601L878.5 601C857 601 814 601 771.2 601C728.3 601 685.7 601 642.8 601C600 601 557 601 514.2 601C471.3 601 428.7 601 385.8 601C343 601 300 601 257.2 601C214.3 601 171.7 601 128.8 601C86 601 43 601 21.5 601L0 601Z" fill="#fa7268"></path><path d="M0 376L21.5 376.7C43 377.3 86 378.7 128.8 385.2C171.7 391.7 214.3 403.3 257.2 415C300 426.7 343 438.3 385.8 442.2C428.7 446 471.3 442 514.2 433.5C557 425 600 412 642.8 415.3C685.7 418.7 728.3 438.3 771.2 437C814 435.7 857 413.3 878.5 402.2L900 391L900 601L878.5 601C857 601 814 601 771.2 601C728.3 601 685.7 601 642.8 601C600 601 557 601 514.2 601C471.3 601 428.7 601 385.8 601C343 601 300 601 257.2 601C214.3 601 171.7 601 128.8 601C86 601 43 601 21.5 601L0 601Z" fill="#eb5967"></path><path d="M0 496L21.5 496.7C43 497.3 86 498.7 128.8 496.7C171.7 494.7 214.3 489.3 257.2 477.8C300 466.3 343 448.7 385.8 445.8C428.7 443 471.3 455 514.2 462C557 469 600 471 642.8 478.5C685.7 486 728.3 499 771.2 499.7C814 500.3 857 488.7 878.5 482.8L900 477L900 601L878.5 601C857 601 814 601 771.2 601C728.3 601 685.7 601 642.8 601C600 601 557 601 514.2 601C471.3 601 428.7 601 385.8 601C343 601 300 601 257.2 601C214.3 601 171.7 601 128.8 601C86 601 43 601 21.5 601L0 601Z" fill="#da3f67"></path><path d="M0 512L21.5 511C43 510 86 508 128.8 514.5C171.7 521 214.3 536 257.2 541.3C300 546.7 343 542.3 385.8 543.5C428.7 544.7 471.3 551.3 514.2 544.3C557 537.3 600 516.7 642.8 511.2C685.7 505.7 728.3 515.3 771.2 515.3C814 515.3 857 505.7 878.5 500.8L900 496L900 601L878.5 601C857 601 814 601 771.2 601C728.3 601 685.7 601 642.8 601C600 601 557 601 514.2 601C471.3 601 428.7 601 385.8 601C343 601 300 601 257.2 601C214.3 601 171.7 601 128.8 601C86 601 43 601 21.5 601L0 601Z" fill="#c62368"></path></svg>