<svg id="visual" viewBox="0 0 900 600" width="900" height="600" xmlns="http://www.w3.org/2000/svg" xmlns:xlink="http://www.w3.org/1999/xlink" version="1.1"><rect x="0" y="0" width="900" height="600" fill="#FFFFFF"></rect><path d="M0 253L21.5 253.2C43 253.3 86 253.7 128.8 273.2C171.7 292.7 214.3 331.3 257.2 331.5C300 331.7 343 293.3 385.8 285.5C428.7 277.7 471.3 300.3 514.2 310.5C557 320.7 600 318.3 642.8 317.5C685.7 316.7 728.3 317.3 771.2 323.7C814 330 857 342 878.5 348L900 354L900 601L878.5 601C857 601 814 601 771.2 601C728.3 601 685.7 601 642.8 601C600 601 557 601 514.2 601C471.3 601 428.7 601 385.8 601C343 601 300 601 257.2 601C214.3 601 171.7 601 128.8 601C86 601 43 601 21.5 601L0 601Z" fill="#fa7268"></path><path d="M0 366L21.5 369.8C43 373.7 86 381.3 128.8 373.7C171.7 366 214.3 343 257.2 338.8C300 334.7 343 349.3 385.8 363.8C428.7 378.3 471.3 392.7 514.2 391.7C557 390.7 600 374.3 642.8 356.7C685.7 339 728.3 320 771.2 319.2C814 318.3 857 335.7 878.5 344.3L900 353L900 601L878.5 601C857 601 814 601 771.2 601C728.3 601 685.7 601 642.8 601C600 601 557 601 514.2 601C471.3 601 428.7 601 385.8 601C343 601 300 601 257.2 601C214.3 601 171.7 601 128.8 601C86 601 43 601 21.5 601L0 601Z" fill="#f36567"></path><path d="M0 428L21.5 416.8C43 405.7 86 383.3 128.8 382.7C171.7 382 214.3 403 257.2 412.5C300 422 343 420 385.8 406C428.7 392 471.3 366 514.2 368.5C557 371 600 402 642.8 409.7C685.7 417.3 728.3 401.7 771.2 395.5C814 389.3 857 392.7 878.5 394.3L900 396L900 601L878.5 601C857 601 814 601 771.2 601C728.3 601 685.7 601 642.8 601C600 601 557 601 514.2 601C471.3 601 428.7 601 385.8 601C343 601 300 601 257.2 601C214.3 601 171.7 601 128.8 601C86 601 43 601 21.5 601L0 601Z" fill="#eb5967"></path><path d="M0 388L21.5 387.5C43 387 86 386 128.8 395.5C171.7 405 214.3 425 257.2 439.5C300 454 343 463 385.8 465.2C428.7 467.3 471.3 462.7 514.2 457.5C557 452.3 600 446.7 642.8 436.7C685.7 426.7 728.3 412.3 771.2 405.5C814 398.7 857 399.3 878.5 399.7L900 400L900 601L878.5 601C857 601 814 601 771.2 601C728.3 601 685.7 601 642.8 601C600 601 557 601 514.2 601C471.3 601 428.7 601 385.8 601C343 601 300 601 257.2 601C214.3 601 171.7 601 128.8 601C86 601 43 601 21.5 601L0 601Z" fill="#e34c67"></path><path d="M0 475L21.5 468.2C43 461.3 86 447.7 128.8 441.5C171.7 435.3 214.3 436.7 257.2 436C300 435.3 343 432.7 385.8 443.5C428.7 454.3 471.3 478.7 514.2 479.2C557 479.7 600 456.3 642.8 445.3C685.7 434.3 728.3 435.7 771.2 440.2C814 444.7 857 452.3 878.5 456.2L900 460L900 601L878.5 601C857 601 814 601 771.2 601C728.3 601 685.7 601 642.8 601C600 601 557 601 514.2 601C471.3 601 428.7 601 385.8 601C343 601 300 601 257.2 601C214.3 601 171.7 601 128.8 601C86 601 43 601 21.5 601L0 601Z" fill="#da3f67"></path><path d="M0 494L21.5 499.2C43 504.3 86 514.7 128.8 521.5C171.7 528.3 214.3 531.7 257.2 532.3C300 533 343 531 385.8 527.3C428.7 523.7 471.3 518.3 514.2 509.5C557 500.7 600 488.3 642.8 488.2C685.7 488 728.3 500 771.2 508.8C814 517.7 857 523.3 878.5 526.2L900 529L900 601L878.5 601C857 601 814 601 771.2 601C728.3 601 685.7 601 642.8 601C600 601 557 601 514.2 601C471.3 601 428.7 601 385.8 601C343 601 300 601 257.2 601C214.3 601 171.7 601 128.8 601C86 601 43 601 21.5 601L0 601Z" fill="#d03267"></path><path d="M0 560L21.5 557C43 554 86 548 128.8 545.5C171.7 543 214.3 544 257.2 541.8C300 539.7 343 534.3 385.8 538.2C428.7 542 471.3 555 514.2 554.2C557 553.3 600 538.7 642.8 539.2C685.7 539.7 728.3 555.3 771.2 558.8C814 562.3 857 553.7 878.5 549.3L900 545L900 601L878.5 601C857 601 814 601 771.2 601C728.3 601 685.7 601 642.8 601C600 601 557 601 514.2 601C471.3 601 428.7 601 385.8 601C343 601 300 601 257.2 601C214.3 601 171.7 601 128.8 601C86 601 43 601 21.5 601L0 601Z" fill="#c62368"></path></svg>