<svg id="visual" viewBox="0 0 900 600" width="900" height="600" xmlns="http://www.w3.org/2000/svg" xmlns:xlink="http://www.w3.org/1999/xlink" version="1.1"><rect x="0" y="0" width="900" height="600" fill="#FFFFFF"></rect><path d="M0 400L21.5 409C43 418 86 436 128.8 437.8C171.7 439.7 214.3 425.3 257.2 410.7C300 396 343 381 385.8 375.7C428.7 370.3 471.3 374.7 514.2 381.2C557 387.7 600 396.3 642.8 409C685.7 421.7 728.3 438.3 771.2 442.8C814 447.3 857 439.7 878.5 435.8L900 432L900 601L878.5 601C857 601 814 601 771.2 601C728.3 601 685.7 601 642.8 601C600 601 557 601 514.2 601C471.3 601 428.7 601 385.8 601C343 601 300 601 257.2 601C214.3 601 171.7 601 128.8 601C86 601 43 601 21.5 601L0 601Z" fill="#fa7268"></path><path d="M0 467L21.5 469.2C43 471.3 86 475.7 128.8 467.8C171.7 460 214.3 440 257.2 433.5C300 427 343 434 385.8 440.8C428.7 447.7 471.3 454.3 514.2 454.3C557 454.3 600 447.7 642.8 443.3C685.7 439 728.3 437 771.2 441.2C814 445.3 857 455.7 878.5 460.8L900 466L900 601L878.5 601C857 601 814 601 771.2 601C728.3 601 685.7 601 642.8 601C600 601 557 601 514.2 601C471.3 601 428.7 601 385.8 601C343 601 300 601 257.2 601C214.3 601 171.7 601 128.8 601C86 601 43 601 21.5 601L0 601Z" fill="#eb5967"></path><path d="M0 478L21.5 478.8C43 479.7 86 481.3 128.8 481.5C171.7 481.7 214.3 480.3 257.2 487.7C300 495 343 511 385.8 508.5C428.7 506 471.3 485 514.2 473.3C557 461.7 600 459.3 642.8 461C685.7 462.7 728.3 468.3 771.2 477C814 485.7 857 497.3 878.5 503.2L900 509L900 601L878.5 601C857 601 814 601 771.2 601C728.3 601 685.7 601 642.8 601C600 601 557 601 514.2 601C471.3 601 428.7 601 385.8 601C343 601 300 601 257.2 601C214.3 601 171.7 601 128.8 601C86 601 43 601 21.5 601L0 601Z" fill="#da3f67"></path><path d="M0 569L21.5 564.5C43 560 86 551 128.8 544.7C171.7 538.3 214.3 534.7 257.2 535C300 535.3 343 539.7 385.8 541.5C428.7 543.3 471.3 542.7 514.2 542C557 541.3 600 540.7 642.8 544.5C685.7 548.3 728.3 556.7 771.2 561.3C814 566 857 567 878.5 567.5L900 568L900 601L878.5 601C857 601 814 601 771.2 601C728.3 601 685.7 601 642.8 601C600 601 557 601 514.2 601C471.3 601 428.7 601 385.8 601C343 601 300 601 257.2 601C214.3 601 171.7 601 128.8 601C86 601 43 601 21.5 601L0 601Z" fill="#c62368"></path></svg>