<svg id="visual" viewBox="0 0 900 600" width="900" height="600" xmlns="http://www.w3.org/2000/svg" xmlns:xlink="http://www.w3.org/1999/xlink" version="1.1"><rect x="0" y="0" width="900" height="600" fill="#FFFFFF"></rect><path d="M0 320L21.5 332.7C43 345.3 86 370.7 128.8 373.2C171.7 375.7 214.3 355.3 257.2 334.7C300 314 343 293 385.8 285.7C428.7 278.3 471.3 284.7 514.2 293.8C557 303 600 315 642.8 332.7C685.7 350.3 728.3 373.7 771.2 380.2C814 386.7 857 376.3 878.5 371.2L900 366L900 601L878.5 601C857 601 814 601 771.2 601C728.3 601 685.7 601 642.8 601C600 601 557 601 514.2 601C471.3 601 428.7 601 385.8 601C343 601 300 601 257.2 601C214.3 601 171.7 601 128.8 601C86 601 43 601 21.5 601L0 601Z" fill="#fa7268"></path><path d="M0 414L21.5 417.2C43 420.3 86 426.7 128.8 415.7C171.7 404.7 214.3 376.3 257.2 367.2C300 358 343 368 385.8 377.7C428.7 387.3 471.3 396.7 514.2 396.7C557 396.7 600 387.3 642.8 381.2C685.7 375 728.3 372 771.2 377.8C814 383.7 857 398.3 878.5 405.7L900 413L900 601L878.5 601C857 601 814 601 771.2 601C728.3 601 685.7 601 642.8 601C600 601 557 601 514.2 601C471.3 601 428.7 601 385.8 601C343 601 300 601 257.2 601C214.3 601 171.7 601 128.8 601C86 601 43 601 21.5 601L0 601Z" fill="#eb5967"></path><path d="M0 429L21.5 430.3C43 431.7 86 434.3 128.8 434.7C171.7 435 214.3 433 257.2 443.3C300 453.7 343 476.3 385.8 472.8C428.7 469.3 471.3 439.7 514.2 423.2C557 406.7 600 403.3 642.8 405.7C685.7 408 728.3 416 771.2 428.2C814 440.3 857 456.7 878.5 464.8L900 473L900 601L878.5 601C857 601 814 601 771.2 601C728.3 601 685.7 601 642.8 601C600 601 557 601 514.2 601C471.3 601 428.7 601 385.8 601C343 601 300 601 257.2 601C214.3 601 171.7 601 128.8 601C86 601 43 601 21.5 601L0 601Z" fill="#da3f67"></path><path d="M0 557L21.5 550.7C43 544.3 86 531.7 128.8 522.7C171.7 513.7 214.3 508.3 257.2 508.7C300 509 343 515 385.8 517.7C428.7 520.3 471.3 519.7 514.2 518.8C557 518 600 517 642.8 522.5C685.7 528 728.3 540 771.2 546.7C814 553.3 857 554.7 878.5 555.3L900 556L900 601L878.5 601C857 601 814 601 771.2 601C728.3 601 685.7 601 642.8 601C600 601 557 601 514.2 601C471.3 601 428.7 601 385.8 601C343 601 300 601 257.2 601C214.3 601 171.7 601 128.8 601C86 601 43 601 21.5 601L0 601Z" fill="#c62368"></path></svg>