<svg id="visual" viewBox="0 0 900 600" width="900" height="600" xmlns="http://www.w3.org/2000/svg" xmlns:xlink="http://www.w3.org/1999/xlink" version="1.1"><g stroke-width="1" stroke-linejoin="bevel"><path d="M484 332L384 326L365 383Z" fill="#f2f2f2" stroke="#f2f2f2"></path><path d="M365 383L482 436L484 332Z" fill="#ebebeb" stroke="#ebebeb"></path><path d="M365 383L409 464L482 436Z" fill="#ebebeb" stroke="#ebebeb"></path><path d="M409 464L461 498L482 436Z" fill="#ededed" stroke="#ededed"></path><path d="M298 267L277 401L365 383Z" fill="#ebebeb" stroke="#ebebeb"></path><path d="M365 383L317 500L409 464Z" fill="#ebebeb" stroke="#ebebeb"></path><path d="M409 464L423 600L461 498Z" fill="#f7f7f7" stroke="#f7f7f7"></path><path d="M672 379L596 363L631 522Z" fill="#f5f5f5" stroke="#f5f5f5"></path><path d="M482 436L596 363L484 332Z" fill="#ebebeb" stroke="#ebebeb"></path><path d="M277 401L317 500L365 383Z" fill="#ffffff" stroke="#ffffff"></path><path d="M376 196L298 267L384 326Z" fill="#fcfcfc" stroke="#fcfcfc"></path><path d="M384 326L298 267L365 383Z" fill="#f7f7f7" stroke="#f7f7f7"></path><path d="M376 196L384 326L484 332Z" fill="#f0f0f0" stroke="#f0f0f0"></path><path d="M529 168L376 196L484 332Z" fill="#e6e6e6" stroke="#e6e6e6"></path><path d="M596 363L604 288L484 332Z" fill="#ebebeb" stroke="#ebebeb"></path><path d="M231 290L216 369L277 401Z" fill="#ffffff" stroke="#ffffff"></path><path d="M277 401L184 526L317 500Z" fill="#e6e6e6" stroke="#e6e6e6"></path><path d="M169 219L231 290L298 267Z" fill="#f7f7f7" stroke="#f7f7f7"></path><path d="M298 267L231 290L277 401Z" fill="#f7f7f7" stroke="#f7f7f7"></path><path d="M317 500L423 600L409 464Z" fill="#fcfcfc" stroke="#fcfcfc"></path><path d="M631 522L596 363L482 436Z" fill="#f0f0f0" stroke="#f0f0f0"></path><path d="M368 77L331 170L376 196Z" fill="#e6e6e6" stroke="#e6e6e6"></path><path d="M376 196L331 170L298 267Z" fill="#ffffff" stroke="#ffffff"></path><path d="M604 288L529 168L484 332Z" fill="#e8e8e8" stroke="#e8e8e8"></path><path d="M631 522L482 436L461 498Z" fill="#f2f2f2" stroke="#f2f2f2"></path><path d="M596 363L683 302L604 288Z" fill="#ffffff" stroke="#ffffff"></path><path d="M604 288L639 234L529 168Z" fill="#f5f5f5" stroke="#f5f5f5"></path><path d="M423 600L518 600L461 498Z" fill="#f0f0f0" stroke="#f0f0f0"></path><path d="M561 600L631 522L461 498Z" fill="#f0f0f0" stroke="#f0f0f0"></path><path d="M683 302L639 234L604 288Z" fill="#fafafa" stroke="#fafafa"></path><path d="M518 600L561 600L461 498Z" fill="#e8e8e8" stroke="#e8e8e8"></path><path d="M672 379L683 302L596 363Z" fill="#ededed" stroke="#ededed"></path><path d="M184 526L282 600L317 500Z" fill="#e6e6e6" stroke="#e6e6e6"></path><path d="M317 500L282 600L423 600Z" fill="#ebebeb" stroke="#ebebeb"></path><path d="M678 600L673 512L631 522Z" fill="#f7f7f7" stroke="#f7f7f7"></path><path d="M631 522L673 512L672 379Z" fill="#fafafa" stroke="#fafafa"></path><path d="M786 291L715 193L683 302Z" fill="#fcfcfc" stroke="#fcfcfc"></path><path d="M133 472L184 526L216 369Z" fill="#ebebeb" stroke="#ebebeb"></path><path d="M216 369L184 526L277 401Z" fill="#f2f2f2" stroke="#f2f2f2"></path><path d="M513 72L368 77L376 196Z" fill="#e6e6e6" stroke="#e6e6e6"></path><path d="M331 170L263 120L298 267Z" fill="#f0f0f0" stroke="#f0f0f0"></path><path d="M368 77L263 120L331 170Z" fill="#ebebeb" stroke="#ebebeb"></path><path d="M231 290L81 307L216 369Z" fill="#f0f0f0" stroke="#f0f0f0"></path><path d="M263 120L169 219L298 267Z" fill="#f2f2f2" stroke="#f2f2f2"></path><path d="M635 99L513 72L529 168Z" fill="#ffffff" stroke="#ffffff"></path><path d="M529 168L513 72L376 196Z" fill="#ededed" stroke="#ededed"></path><path d="M88 402L133 472L216 369Z" fill="#fcfcfc" stroke="#fcfcfc"></path><path d="M184 526L208 600L282 600Z" fill="#e8e8e8" stroke="#e8e8e8"></path><path d="M113 600L208 600L184 526Z" fill="#e8e8e8" stroke="#e8e8e8"></path><path d="M561 600L678 600L631 522Z" fill="#f0f0f0" stroke="#f0f0f0"></path><path d="M786 291L683 302L672 379Z" fill="#e8e8e8" stroke="#e8e8e8"></path><path d="M683 302L715 193L639 234Z" fill="#f7f7f7" stroke="#f7f7f7"></path><path d="M639 234L635 99L529 168Z" fill="#e8e8e8" stroke="#e8e8e8"></path><path d="M786 291L672 379L798 439Z" fill="#fcfcfc" stroke="#fcfcfc"></path><path d="M715 193L635 99L639 234Z" fill="#ededed" stroke="#ededed"></path><path d="M81 307L88 402L216 369Z" fill="#f0f0f0" stroke="#f0f0f0"></path><path d="M133 472L113 600L184 526Z" fill="#fcfcfc" stroke="#fcfcfc"></path><path d="M287 0L233 87L263 120Z" fill="#fafafa" stroke="#fafafa"></path><path d="M263 120L233 87L169 219Z" fill="#ffffff" stroke="#ffffff"></path><path d="M106 169L81 307L169 219Z" fill="#ffffff" stroke="#ffffff"></path><path d="M169 219L81 307L231 290Z" fill="#fcfcfc" stroke="#fcfcfc"></path><path d="M798 439L672 379L673 512Z" fill="#fcfcfc" stroke="#fcfcfc"></path><path d="M815 491L798 439L673 512Z" fill="#e8e8e8" stroke="#e8e8e8"></path><path d="M517 0L408 0L513 72Z" fill="#e6e6e6" stroke="#e6e6e6"></path><path d="M513 72L408 0L368 77Z" fill="#e6e6e6" stroke="#e6e6e6"></path><path d="M368 77L287 0L263 120Z" fill="#fafafa" stroke="#fafafa"></path><path d="M715 193L713 122L635 99Z" fill="#f7f7f7" stroke="#f7f7f7"></path><path d="M608 0L517 0L513 72Z" fill="#e8e8e8" stroke="#e8e8e8"></path><path d="M811 118L713 122L715 193Z" fill="#fafafa" stroke="#fafafa"></path><path d="M608 0L513 72L635 99Z" fill="#f5f5f5" stroke="#f5f5f5"></path><path d="M233 87L106 169L169 219Z" fill="#f7f7f7" stroke="#f7f7f7"></path><path d="M0 527L113 600L133 472Z" fill="#ebebeb" stroke="#ebebeb"></path><path d="M408 0L287 0L368 77Z" fill="#f7f7f7" stroke="#f7f7f7"></path><path d="M233 87L82 72L106 169Z" fill="#f5f5f5" stroke="#f5f5f5"></path><path d="M798 600L815 491L673 512Z" fill="#f5f5f5" stroke="#f5f5f5"></path><path d="M900 284L822 237L786 291Z" fill="#f7f7f7" stroke="#f7f7f7"></path><path d="M685 0L608 0L635 99Z" fill="#e8e8e8" stroke="#e8e8e8"></path><path d="M786 291L822 237L715 193Z" fill="#ededed" stroke="#ededed"></path><path d="M713 122L685 0L635 99Z" fill="#e6e6e6" stroke="#e6e6e6"></path><path d="M900 386L786 291L798 439Z" fill="#f5f5f5" stroke="#f5f5f5"></path><path d="M678 600L798 600L673 512Z" fill="#f2f2f2" stroke="#f2f2f2"></path><path d="M0 305L0 370L81 307Z" fill="#e8e8e8" stroke="#e8e8e8"></path><path d="M81 307L0 370L88 402Z" fill="#f0f0f0" stroke="#f0f0f0"></path><path d="M88 402L0 527L133 472Z" fill="#fafafa" stroke="#fafafa"></path><path d="M0 196L0 305L81 307Z" fill="#fcfcfc" stroke="#fcfcfc"></path><path d="M797 0L685 0L713 122Z" fill="#f0f0f0" stroke="#f0f0f0"></path><path d="M822 237L811 118L715 193Z" fill="#f7f7f7" stroke="#f7f7f7"></path><path d="M0 370L0 527L88 402Z" fill="#ededed" stroke="#ededed"></path><path d="M287 0L165 0L233 87Z" fill="#f2f2f2" stroke="#f2f2f2"></path><path d="M106 169L0 196L81 307Z" fill="#ffffff" stroke="#ffffff"></path><path d="M165 0L82 72L233 87Z" fill="#fcfcfc" stroke="#fcfcfc"></path><path d="M0 94L0 196L106 169Z" fill="#f5f5f5" stroke="#f5f5f5"></path><path d="M900 461L798 439L815 491Z" fill="#ebebeb" stroke="#ebebeb"></path><path d="M900 461L900 386L798 439Z" fill="#f2f2f2" stroke="#f2f2f2"></path><path d="M822 237L900 177L811 118Z" fill="#f2f2f2" stroke="#f2f2f2"></path><path d="M900 600L900 461L815 491Z" fill="#ebebeb" stroke="#ebebeb"></path><path d="M900 386L900 284L786 291Z" fill="#e6e6e6" stroke="#e6e6e6"></path><path d="M0 527L0 600L113 600Z" fill="#f0f0f0" stroke="#f0f0f0"></path><path d="M900 284L900 177L822 237Z" fill="#ebebeb" stroke="#ebebeb"></path><path d="M811 118L797 0L713 122Z" fill="#ffffff" stroke="#ffffff"></path><path d="M165 0L86 0L82 72Z" fill="#ffffff" stroke="#ffffff"></path><path d="M82 72L0 94L106 169Z" fill="#ffffff" stroke="#ffffff"></path><path d="M0 0L0 94L82 72Z" fill="#f5f5f5" stroke="#f5f5f5"></path><path d="M798 600L900 600L815 491Z" fill="#fafafa" stroke="#fafafa"></path><path d="M900 86L797 0L811 118Z" fill="#ebebeb" stroke="#ebebeb"></path><path d="M900 177L900 86L811 118Z" fill="#ebebeb" stroke="#ebebeb"></path><path d="M86 0L0 0L82 72Z" fill="#fafafa" stroke="#fafafa"></path><path d="M900 86L900 0L797 0Z" fill="#f5f5f5" stroke="#f5f5f5"></path></g></svg>