<svg xmlns="http://www.w3.org/2000/svg" version="1.1" xmlns:xlink="http://www.w3.org/1999/xlink" xmlns:svgjs="http://svgjs.dev/svgjs" width="1908" height="700" preserveAspectRatio="none" viewBox="0 0 1908 700"><g mask="url(&quot;#SvgjsMask1100&quot;)" fill="none"><path d="M-56.52 547.23L-56.52 547.23" stroke="rgba(212, 255, 120, 1)" stroke-width="1.5"></path><path d="M-56.52 547.23L76.65 507.82" stroke="rgba(212, 255, 120, 1)" stroke-width="1.5"></path><path d="M-56.52 547.23L-75.53 697.73" stroke="rgba(212, 255, 120, 1)" stroke-width="1.5"></path><path d="M-56.52 547.23L77.28 672.39" stroke="rgba(212, 255, 120, 1)" stroke-width="1.5"></path><path d="M-56.52 547.23L-39.1 803.84" stroke="rgba(212, 255, 120, 1)" stroke-width="1.5"></path><path d="M-75.53 697.73L-75.53 697.73" stroke="rgba(212, 255, 120, 1)" stroke-width="1.5"></path><path d="M-75.53 697.73L-39.1 803.84" stroke="rgba(212, 255, 120, 1)" stroke-width="1.5"></path><path d="M-75.53 697.73L77.28 672.39" stroke="rgba(212, 255, 120, 1)" stroke-width="1.5"></path><path d="M-39.1 803.84L-39.1 803.84" stroke="rgba(212, 255, 120, 1)" stroke-width="1.5"></path><path d="M-39.1 803.84L77.28 672.39" stroke="rgba(212, 255, 120, 1)" stroke-width="1.5"></path><path d="M-39.1 803.84L210.85 846.19" stroke="rgba(212, 255, 120, 1)" stroke-width="1.5"></path><path d="M-39.1 803.84L76.65 507.82" stroke="rgba(212, 255, 120, 1)" stroke-width="1.5"></path><path d="M76.65 507.82L76.65 507.82" stroke="rgba(212, 255, 120, 1)" stroke-width="1.5"></path><path d="M76.65 507.82L213.75 545.74" stroke="rgba(212, 255, 120, 1)" stroke-width="1.5"></path><path d="M77.28 672.39L77.28 672.39" stroke="rgba(212, 255, 120, 1)" stroke-width="1.5"></path><path d="M77.28 672.39L76.65 507.82" stroke="rgba(212, 255, 120, 1)" stroke-width="1.5"></path><path d="M77.28 672.39L213.75 545.74" stroke="rgba(212, 255, 120, 1)" stroke-width="1.5"></path><path d="M77.28 672.39L210.85 846.19" stroke="rgba(212, 255, 120, 1)" stroke-width="1.5"></path><path d="M213.75 545.74L213.75 545.74" stroke="rgba(212, 255, 120, 1)" stroke-width="1.5"></path><path d="M213.75 545.74L348.91 519.98" stroke="rgba(212, 255, 120, 1)" stroke-width="1.5"></path><path d="M210.85 846.19L210.85 846.19" stroke="rgba(212, 255, 120, 1)" stroke-width="1.5"></path><path d="M210.85 846.19L405.33 802.54" stroke="rgba(212, 255, 120, 1)" stroke-width="1.5"></path><path d="M210.85 846.19L405.08 646.76" stroke="rgba(212, 255, 120, 1)" stroke-width="1.5"></path><path d="M348.91 519.98L348.91 519.98" stroke="rgba(212, 255, 120, 1)" stroke-width="1.5"></path><path d="M348.91 519.98L405.08 646.76" stroke="rgba(212, 255, 120, 1)" stroke-width="1.5"></path><path d="M405.08 646.76L405.08 646.76" stroke="rgba(212, 255, 120, 1)" stroke-width="1.5"></path><path d="M405.08 646.76L496.35 671.84" stroke="rgba(212, 255, 120, 1)" stroke-width="1.5"></path><path d="M405.08 646.76L512.51 538.79" stroke="rgba(212, 255, 120, 1)" stroke-width="1.5"></path><path d="M405.08 646.76L405.33 802.54" stroke="rgba(212, 255, 120, 1)" stroke-width="1.5"></path><path d="M405.33 802.54L405.33 802.54" stroke="rgba(212, 255, 120, 1)" stroke-width="1.5"></path><path d="M405.33 802.54L522.15 797.88" stroke="rgba(212, 255, 120, 1)" stroke-width="1.5"></path><path d="M512.51 538.79L512.51 538.79" stroke="rgba(212, 255, 120, 1)" stroke-width="1.5"></path><path d="M512.51 538.79L496.35 671.84" stroke="rgba(212, 255, 120, 1)" stroke-width="1.5"></path><path d="M512.51 538.79L348.91 519.98" stroke="rgba(212, 255, 120, 1)" stroke-width="1.5"></path><path d="M512.51 538.79L690.75 512.36" stroke="rgba(212, 255, 120, 1)" stroke-width="1.5"></path><path d="M496.35 671.84L496.35 671.84" stroke="rgba(212, 255, 120, 1)" stroke-width="1.5"></path><path d="M496.35 671.84L522.15 797.88" stroke="rgba(212, 255, 120, 1)" stroke-width="1.5"></path><path d="M496.35 671.84L405.33 802.54" stroke="rgba(212, 255, 120, 1)" stroke-width="1.5"></path><path d="M496.35 671.84L348.91 519.98" stroke="rgba(212, 255, 120, 1)" stroke-width="1.5"></path><path d="M522.15 797.88L522.15 797.88" stroke="rgba(212, 255, 120, 1)" stroke-width="1.5"></path><path d="M522.15 797.88L675.6 809.12" stroke="rgba(212, 255, 120, 1)" stroke-width="1.5"></path><path d="M522.15 797.88L405.08 646.76" stroke="rgba(212, 255, 120, 1)" stroke-width="1.5"></path><path d="M522.15 797.88L512.51 538.79" stroke="rgba(212, 255, 120, 1)" stroke-width="1.5"></path><path d="M666.15 343.52L666.15 343.52" stroke="rgba(212, 255, 120, 1)" stroke-width="1.5"></path><path d="M666.15 343.52L690.75 512.36" stroke="rgba(212, 255, 120, 1)" stroke-width="1.5"></path><path d="M666.15 343.52L834.94 396.11" stroke="rgba(212, 255, 120, 1)" stroke-width="1.5"></path><path d="M666.15 343.52L512.51 538.79" stroke="rgba(212, 255, 120, 1)" stroke-width="1.5"></path><path d="M690.75 512.36L690.75 512.36" stroke="rgba(212, 255, 120, 1)" stroke-width="1.5"></path><path d="M690.75 512.36L815.74 560.59" stroke="rgba(212, 255, 120, 1)" stroke-width="1.5"></path><path d="M690.75 512.36L834.94 396.11" stroke="rgba(212, 255, 120, 1)" stroke-width="1.5"></path><path d="M690.75 512.36L808.24 659.54" stroke="rgba(212, 255, 120, 1)" stroke-width="1.5"></path><path d="M690.75 512.36L496.35 671.84" stroke="rgba(212, 255, 120, 1)" stroke-width="1.5"></path><path d="M675.6 809.12L675.6 809.12" stroke="rgba(212, 255, 120, 1)" stroke-width="1.5"></path><path d="M675.6 809.12L856.41 824.08" stroke="rgba(212, 255, 120, 1)" stroke-width="1.5"></path><path d="M675.6 809.12L808.24 659.54" stroke="rgba(212, 255, 120, 1)" stroke-width="1.5"></path><path d="M675.6 809.12L496.35 671.84" stroke="rgba(212, 255, 120, 1)" stroke-width="1.5"></path><path d="M675.6 809.12L943.35 835.81" stroke="rgba(212, 255, 120, 1)" stroke-width="1.5"></path><path d="M834.94 396.11L834.94 396.11" stroke="rgba(212, 255, 120, 1)" stroke-width="1.5"></path><path d="M834.94 396.11L981 405.98" stroke="rgba(212, 255, 120, 1)" stroke-width="1.5"></path><path d="M834.94 396.11L815.74 560.59" stroke="rgba(212, 255, 120, 1)" stroke-width="1.5"></path><path d="M834.94 396.11L950.19 251.64" stroke="rgba(212, 255, 120, 1)" stroke-width="1.5"></path><path d="M815.74 560.59L815.74 560.59" stroke="rgba(212, 255, 120, 1)" stroke-width="1.5"></path><path d="M815.74 560.59L808.24 659.54" stroke="rgba(212, 255, 120, 1)" stroke-width="1.5"></path><path d="M815.74 560.59L942.45 647.76" stroke="rgba(212, 255, 120, 1)" stroke-width="1.5"></path><path d="M815.74 560.59L991.55 501.03" stroke="rgba(212, 255, 120, 1)" stroke-width="1.5"></path><path d="M815.74 560.59L981 405.98" stroke="rgba(212, 255, 120, 1)" stroke-width="1.5"></path><path d="M808.24 659.54L808.24 659.54" stroke="rgba(212, 255, 120, 1)" stroke-width="1.5"></path><path d="M808.24 659.54L942.45 647.76" stroke="rgba(212, 255, 120, 1)" stroke-width="1.5"></path><path d="M808.24 659.54L856.41 824.08" stroke="rgba(212, 255, 120, 1)" stroke-width="1.5"></path><path d="M808.24 659.54L943.35 835.81" stroke="rgba(212, 255, 120, 1)" stroke-width="1.5"></path><path d="M856.41 824.08L856.41 824.08" stroke="rgba(212, 255, 120, 1)" stroke-width="1.5"></path><path d="M856.41 824.08L943.35 835.81" stroke="rgba(212, 255, 120, 1)" stroke-width="1.5"></path><path d="M856.41 824.08L942.45 647.76" stroke="rgba(212, 255, 120, 1)" stroke-width="1.5"></path><path d="M950.19 251.64L950.19 251.64" stroke="rgba(212, 255, 120, 1)" stroke-width="1.5"></path><path d="M950.19 251.64L1106.64 259.11" stroke="rgba(212, 255, 120, 1)" stroke-width="1.5"></path><path d="M950.19 251.64L981 405.98" stroke="rgba(212, 255, 120, 1)" stroke-width="1.5"></path><path d="M950.19 251.64L991.55 501.03" stroke="rgba(212, 255, 120, 1)" stroke-width="1.5"></path><path d="M950.19 251.64L666.15 343.52" stroke="rgba(212, 255, 120, 1)" stroke-width="1.5"></path><path d="M950.19 251.64L1158.08 492.2" stroke="rgba(212, 255, 120, 1)" stroke-width="1.5"></path><path d="M981 405.98L981 405.98" stroke="rgba(212, 255, 120, 1)" stroke-width="1.5"></path><path d="M981 405.98L991.55 501.03" stroke="rgba(212, 255, 120, 1)" stroke-width="1.5"></path><path d="M991.55 501.03L991.55 501.03" stroke="rgba(212, 255, 120, 1)" stroke-width="1.5"></path><path d="M991.55 501.03L942.45 647.76" stroke="rgba(212, 255, 120, 1)" stroke-width="1.5"></path><path d="M991.55 501.03L1158.08 492.2" stroke="rgba(212, 255, 120, 1)" stroke-width="1.5"></path><path d="M991.55 501.03L834.94 396.11" stroke="rgba(212, 255, 120, 1)" stroke-width="1.5"></path><path d="M991.55 501.03L1115.59 701.15" stroke="rgba(212, 255, 120, 1)" stroke-width="1.5"></path><path d="M942.45 647.76L942.45 647.76" stroke="rgba(212, 255, 120, 1)" stroke-width="1.5"></path><path d="M942.45 647.76L1115.59 701.15" stroke="rgba(212, 255, 120, 1)" stroke-width="1.5"></path><path d="M942.45 647.76L943.35 835.81" stroke="rgba(212, 255, 120, 1)" stroke-width="1.5"></path><path d="M943.35 835.81L943.35 835.81" stroke="rgba(212, 255, 120, 1)" stroke-width="1.5"></path><path d="M943.35 835.81L1094.41 808.14" stroke="rgba(212, 255, 120, 1)" stroke-width="1.5"></path><path d="M1106.64 259.11L1106.64 259.11" stroke="rgba(212, 255, 120, 1)" stroke-width="1.5"></path><path d="M1106.64 259.11L1258.2 350.56" stroke="rgba(212, 255, 120, 1)" stroke-width="1.5"></path><path d="M1158.08 492.2L1158.08 492.2" stroke="rgba(212, 255, 120, 1)" stroke-width="1.5"></path><path d="M1158.08 492.2L1287.65 525.38" stroke="rgba(212, 255, 120, 1)" stroke-width="1.5"></path><path d="M1158.08 492.2L1258.2 350.56" stroke="rgba(212, 255, 120, 1)" stroke-width="1.5"></path><path d="M1158.08 492.2L981 405.98" stroke="rgba(212, 255, 120, 1)" stroke-width="1.5"></path><path d="M1158.08 492.2L1115.59 701.15" stroke="rgba(212, 255, 120, 1)" stroke-width="1.5"></path><path d="M1158.08 492.2L1106.64 259.11" stroke="rgba(212, 255, 120, 1)" stroke-width="1.5"></path><path d="M1115.59 701.15L1115.59 701.15" stroke="rgba(212, 255, 120, 1)" stroke-width="1.5"></path><path d="M1115.59 701.15L1094.41 808.14" stroke="rgba(212, 255, 120, 1)" stroke-width="1.5"></path><path d="M1115.59 701.15L1308.31 702.16" stroke="rgba(212, 255, 120, 1)" stroke-width="1.5"></path><path d="M1094.41 808.14L1094.41 808.14" stroke="rgba(212, 255, 120, 1)" stroke-width="1.5"></path><path d="M1094.41 808.14L1294.25 825.48" stroke="rgba(212, 255, 120, 1)" stroke-width="1.5"></path><path d="M1272.69 -109.02L1272.69 -109.02" stroke="rgba(212, 255, 120, 1)" stroke-width="1.5"></path><path d="M1272.69 -109.02L1429.6 -64.37" stroke="rgba(212, 255, 120, 1)" stroke-width="1.5"></path><path d="M1272.69 -109.02L1283.06 82.49" stroke="rgba(212, 255, 120, 1)" stroke-width="1.5"></path><path d="M1272.69 -109.02L1427.39 65.4" stroke="rgba(212, 255, 120, 1)" stroke-width="1.5"></path><path d="M1272.69 -109.02L1571.62 -80.1" stroke="rgba(212, 255, 120, 1)" stroke-width="1.5"></path><path d="M1283.06 82.49L1283.06 82.49" stroke="rgba(212, 255, 120, 1)" stroke-width="1.5"></path><path d="M1283.06 82.49L1427.39 65.4" stroke="rgba(212, 255, 120, 1)" stroke-width="1.5"></path><path d="M1283.06 82.49L1285.25 259.57" stroke="rgba(212, 255, 120, 1)" stroke-width="1.5"></path><path d="M1285.25 259.57L1285.25 259.57" stroke="rgba(212, 255, 120, 1)" stroke-width="1.5"></path><path d="M1285.25 259.57L1258.2 350.56" stroke="rgba(212, 255, 120, 1)" stroke-width="1.5"></path><path d="M1285.25 259.57L1406.52 262.23" stroke="rgba(212, 255, 120, 1)" stroke-width="1.5"></path><path d="M1258.2 350.56L1258.2 350.56" stroke="rgba(212, 255, 120, 1)" stroke-width="1.5"></path><path d="M1258.2 350.56L1409.3 398.44" stroke="rgba(212, 255, 120, 1)" stroke-width="1.5"></path><path d="M1258.2 350.56L1406.52 262.23" stroke="rgba(212, 255, 120, 1)" stroke-width="1.5"></path><path d="M1287.65 525.38L1287.65 525.38" stroke="rgba(212, 255, 120, 1)" stroke-width="1.5"></path><path d="M1287.65 525.38L1455.13 547.93" stroke="rgba(212, 255, 120, 1)" stroke-width="1.5"></path><path d="M1287.65 525.38L1409.3 398.44" stroke="rgba(212, 255, 120, 1)" stroke-width="1.5"></path><path d="M1287.65 525.38L1258.2 350.56" stroke="rgba(212, 255, 120, 1)" stroke-width="1.5"></path><path d="M1308.31 702.16L1308.31 702.16" stroke="rgba(212, 255, 120, 1)" stroke-width="1.5"></path><path d="M1308.31 702.16L1410.49 678.6" stroke="rgba(212, 255, 120, 1)" stroke-width="1.5"></path><path d="M1308.31 702.16L1294.25 825.48" stroke="rgba(212, 255, 120, 1)" stroke-width="1.5"></path><path d="M1294.25 825.48L1294.25 825.48" stroke="rgba(212, 255, 120, 1)" stroke-width="1.5"></path><path d="M1294.25 825.48L1461.96 793.14" stroke="rgba(212, 255, 120, 1)" stroke-width="1.5"></path><path d="M1429.6 -64.37L1429.6 -64.37" stroke="rgba(212, 255, 120, 1)" stroke-width="1.5"></path><path d="M1429.6 -64.37L1427.39 65.4" stroke="rgba(212, 255, 120, 1)" stroke-width="1.5"></path><path d="M1429.6 -64.37L1571.62 -80.1" stroke="rgba(212, 255, 120, 1)" stroke-width="1.5"></path><path d="M1427.39 65.4L1427.39 65.4" stroke="rgba(212, 255, 120, 1)" stroke-width="1.5"></path><path d="M1427.39 65.4L1570.14 58.77" stroke="rgba(212, 255, 120, 1)" stroke-width="1.5"></path><path d="M1406.52 262.23L1406.52 262.23" stroke="rgba(212, 255, 120, 1)" stroke-width="1.5"></path><path d="M1406.52 262.23L1409.3 398.44" stroke="rgba(212, 255, 120, 1)" stroke-width="1.5"></path><path d="M1406.52 262.23L1540.14 234.51" stroke="rgba(212, 255, 120, 1)" stroke-width="1.5"></path><path d="M1406.52 262.23L1427.39 65.4" stroke="rgba(212, 255, 120, 1)" stroke-width="1.5"></path><path d="M1409.3 398.44L1409.3 398.44" stroke="rgba(212, 255, 120, 1)" stroke-width="1.5"></path><path d="M1409.3 398.44L1455.13 547.93" stroke="rgba(212, 255, 120, 1)" stroke-width="1.5"></path><path d="M1455.13 547.93L1455.13 547.93" stroke="rgba(212, 255, 120, 1)" stroke-width="1.5"></path><path d="M1455.13 547.93L1572.02 490.51" stroke="rgba(212, 255, 120, 1)" stroke-width="1.5"></path><path d="M1455.13 547.93L1410.49 678.6" stroke="rgba(212, 255, 120, 1)" stroke-width="1.5"></path><path d="M1410.49 678.6L1410.49 678.6" stroke="rgba(212, 255, 120, 1)" stroke-width="1.5"></path><path d="M1461.96 793.14L1461.96 793.14" stroke="rgba(212, 255, 120, 1)" stroke-width="1.5"></path><path d="M1461.96 793.14L1586.96 796.54" stroke="rgba(212, 255, 120, 1)" stroke-width="1.5"></path><path d="M1461.96 793.14L1410.49 678.6" stroke="rgba(212, 255, 120, 1)" stroke-width="1.5"></path><path d="M1571.62 -80.1L1571.62 -80.1" stroke="rgba(212, 255, 120, 1)" stroke-width="1.5"></path><path d="M1571.62 -80.1L1570.14 58.77" stroke="rgba(212, 255, 120, 1)" stroke-width="1.5"></path><path d="M1570.14 58.77L1570.14 58.77" stroke="rgba(212, 255, 120, 1)" stroke-width="1.5"></path><path d="M1540.14 234.51L1540.14 234.51" stroke="rgba(212, 255, 120, 1)" stroke-width="1.5"></path><path d="M1540.14 234.51L1570.14 58.77" stroke="rgba(212, 255, 120, 1)" stroke-width="1.5"></path><path d="M1540.14 234.51L1591.91 409.51" stroke="rgba(212, 255, 120, 1)" stroke-width="1.5"></path><path d="M1540.14 234.51L1706.4 340.97" stroke="rgba(212, 255, 120, 1)" stroke-width="1.5"></path><path d="M1540.14 234.51L1427.39 65.4" stroke="rgba(212, 255, 120, 1)" stroke-width="1.5"></path><path d="M1591.91 409.51L1591.91 409.51" stroke="rgba(212, 255, 120, 1)" stroke-width="1.5"></path><path d="M1591.91 409.51L1572.02 490.51" stroke="rgba(212, 255, 120, 1)" stroke-width="1.5"></path><path d="M1591.91 409.51L1706.4 340.97" stroke="rgba(212, 255, 120, 1)" stroke-width="1.5"></path><path d="M1591.91 409.51L1698.68 532.39" stroke="rgba(212, 255, 120, 1)" stroke-width="1.5"></path><path d="M1572.02 490.51L1572.02 490.51" stroke="rgba(212, 255, 120, 1)" stroke-width="1.5"></path><path d="M1573.86 697.83L1573.86 697.83" stroke="rgba(212, 255, 120, 1)" stroke-width="1.5"></path><path d="M1573.86 697.83L1586.96 796.54" stroke="rgba(212, 255, 120, 1)" stroke-width="1.5"></path><path d="M1573.86 697.83L1699.15 677.73" stroke="rgba(212, 255, 120, 1)" stroke-width="1.5"></path><path d="M1586.96 796.54L1586.96 796.54" stroke="rgba(212, 255, 120, 1)" stroke-width="1.5"></path><path d="M1586.96 796.54L1741.5 832.91" stroke="rgba(212, 255, 120, 1)" stroke-width="1.5"></path><path d="M1719.47 -93.35L1719.47 -93.35" stroke="rgba(212, 255, 120, 1)" stroke-width="1.5"></path><path d="M1719.47 -93.35L1571.62 -80.1" stroke="rgba(212, 255, 120, 1)" stroke-width="1.5"></path><path d="M1719.47 -93.35L1884.41 -107.05" stroke="rgba(212, 255, 120, 1)" stroke-width="1.5"></path><path d="M1719.47 -93.35L1743.26 106.13" stroke="rgba(212, 255, 120, 1)" stroke-width="1.5"></path><path d="M1719.47 -93.35L1570.14 58.77" stroke="rgba(212, 255, 120, 1)" stroke-width="1.5"></path><path d="M1719.47 -93.35L1896.32 69.66" stroke="rgba(212, 255, 120, 1)" stroke-width="1.5"></path><path d="M1719.47 -93.35L1744.37 196.6" stroke="rgba(212, 255, 120, 1)" stroke-width="1.5"></path><path d="M1743.26 106.13L1743.26 106.13" stroke="rgba(212, 255, 120, 1)" stroke-width="1.5"></path><path d="M1743.26 106.13L1744.37 196.6" stroke="rgba(212, 255, 120, 1)" stroke-width="1.5"></path><path d="M1743.26 106.13L1896.32 69.66" stroke="rgba(212, 255, 120, 1)" stroke-width="1.5"></path><path d="M1743.26 106.13L1858.89 213.02" stroke="rgba(212, 255, 120, 1)" stroke-width="1.5"></path><path d="M1743.26 106.13L1570.14 58.77" stroke="rgba(212, 255, 120, 1)" stroke-width="1.5"></path><path d="M1744.37 196.6L1744.37 196.6" stroke="rgba(212, 255, 120, 1)" stroke-width="1.5"></path><path d="M1744.37 196.6L1858.89 213.02" stroke="rgba(212, 255, 120, 1)" stroke-width="1.5"></path><path d="M1744.37 196.6L1706.4 340.97" stroke="rgba(212, 255, 120, 1)" stroke-width="1.5"></path><path d="M1744.37 196.6L1896.32 69.66" stroke="rgba(212, 255, 120, 1)" stroke-width="1.5"></path><path d="M1744.37 196.6L1540.14 234.51" stroke="rgba(212, 255, 120, 1)" stroke-width="1.5"></path><path d="M1706.4 340.97L1706.4 340.97" stroke="rgba(212, 255, 120, 1)" stroke-width="1.5"></path><path d="M1706.4 340.97L1844.4 407.04" stroke="rgba(212, 255, 120, 1)" stroke-width="1.5"></path><path d="M1706.4 340.97L1698.68 532.39" stroke="rgba(212, 255, 120, 1)" stroke-width="1.5"></path><path d="M1706.4 340.97L1858.89 213.02" stroke="rgba(212, 255, 120, 1)" stroke-width="1.5"></path><path d="M1698.68 532.39L1698.68 532.39" stroke="rgba(212, 255, 120, 1)" stroke-width="1.5"></path><path d="M1698.68 532.39L1572.02 490.51" stroke="rgba(212, 255, 120, 1)" stroke-width="1.5"></path><path d="M1698.68 532.39L1699.15 677.73" stroke="rgba(212, 255, 120, 1)" stroke-width="1.5"></path><path d="M1699.15 677.73L1699.15 677.73" stroke="rgba(212, 255, 120, 1)" stroke-width="1.5"></path><path d="M1699.15 677.73L1741.5 832.91" stroke="rgba(212, 255, 120, 1)" stroke-width="1.5"></path><path d="M1699.15 677.73L1586.96 796.54" stroke="rgba(212, 255, 120, 1)" stroke-width="1.5"></path><path d="M1741.5 832.91L1741.5 832.91" stroke="rgba(212, 255, 120, 1)" stroke-width="1.5"></path><path d="M1741.5 832.91L1870.79 850.07" stroke="rgba(212, 255, 120, 1)" stroke-width="1.5"></path><path d="M1741.5 832.91L1867.52 672.2" stroke="rgba(212, 255, 120, 1)" stroke-width="1.5"></path><path d="M1741.5 832.91L1573.86 697.83" stroke="rgba(212, 255, 120, 1)" stroke-width="1.5"></path><path d="M1884.41 -107.05L1884.41 -107.05" stroke="rgba(212, 255, 120, 1)" stroke-width="1.5"></path><path d="M1884.41 -107.05L1896.32 69.66" stroke="rgba(212, 255, 120, 1)" stroke-width="1.5"></path><path d="M1896.32 69.66L1896.32 69.66" stroke="rgba(212, 255, 120, 1)" stroke-width="1.5"></path><path d="M1896.32 69.66L1994.03 47.66" stroke="rgba(212, 255, 120, 1)" stroke-width="1.5"></path><path d="M1896.32 69.66L1858.89 213.02" stroke="rgba(212, 255, 120, 1)" stroke-width="1.5"></path><path d="M1858.89 213.02L1858.89 213.02" stroke="rgba(212, 255, 120, 1)" stroke-width="1.5"></path><path d="M1844.4 407.04L1844.4 407.04" stroke="rgba(212, 255, 120, 1)" stroke-width="1.5"></path><path d="M1844.4 407.04L1875.05 493.52" stroke="rgba(212, 255, 120, 1)" stroke-width="1.5"></path><path d="M1844.4 407.04L2023.32 396.37" stroke="rgba(212, 255, 120, 1)" stroke-width="1.5"></path><path d="M1844.4 407.04L1698.68 532.39" stroke="rgba(212, 255, 120, 1)" stroke-width="1.5"></path><path d="M1875.05 493.52L1875.05 493.52" stroke="rgba(212, 255, 120, 1)" stroke-width="1.5"></path><path d="M1875.05 493.52L2021.75 544.72" stroke="rgba(212, 255, 120, 1)" stroke-width="1.5"></path><path d="M1875.05 493.52L2023.32 396.37" stroke="rgba(212, 255, 120, 1)" stroke-width="1.5"></path><path d="M1875.05 493.52L1867.52 672.2" stroke="rgba(212, 255, 120, 1)" stroke-width="1.5"></path><path d="M1875.05 493.52L1698.68 532.39" stroke="rgba(212, 255, 120, 1)" stroke-width="1.5"></path><path d="M1875.05 493.52L1706.4 340.97" stroke="rgba(212, 255, 120, 1)" stroke-width="1.5"></path><path d="M1867.52 672.2L1867.52 672.2" stroke="rgba(212, 255, 120, 1)" stroke-width="1.5"></path><path d="M1867.52 672.2L1699.15 677.73" stroke="rgba(212, 255, 120, 1)" stroke-width="1.5"></path><path d="M1867.52 672.2L1870.79 850.07" stroke="rgba(212, 255, 120, 1)" stroke-width="1.5"></path><path d="M1867.52 672.2L2058.32 652.64" stroke="rgba(212, 255, 120, 1)" stroke-width="1.5"></path><path d="M1867.52 672.2L2001.01 817.63" stroke="rgba(212, 255, 120, 1)" stroke-width="1.5"></path><path d="M1870.79 850.07L1870.79 850.07" stroke="rgba(212, 255, 120, 1)" stroke-width="1.5"></path><path d="M1870.79 850.07L2001.01 817.63" stroke="rgba(212, 255, 120, 1)" stroke-width="1.5"></path><path d="M1870.79 850.07L1699.15 677.73" stroke="rgba(212, 255, 120, 1)" stroke-width="1.5"></path><path d="M1870.79 850.07L2058.32 652.64" stroke="rgba(212, 255, 120, 1)" stroke-width="1.5"></path><path d="M2061.22 -94.92L2061.22 -94.92" stroke="rgba(212, 255, 120, 1)" stroke-width="1.5"></path><path d="M2061.22 -94.92L1994.03 47.66" stroke="rgba(212, 255, 120, 1)" stroke-width="1.5"></path><path d="M2061.22 -94.92L1884.41 -107.05" stroke="rgba(212, 255, 120, 1)" stroke-width="1.5"></path><path d="M2061.22 -94.92L1896.32 69.66" stroke="rgba(212, 255, 120, 1)" stroke-width="1.5"></path><path d="M1994.03 47.66L1994.03 47.66" stroke="rgba(212, 255, 120, 1)" stroke-width="1.5"></path><path d="M1994.03 47.66L1884.41 -107.05" stroke="rgba(212, 255, 120, 1)" stroke-width="1.5"></path><path d="M1994.03 47.66L1858.89 213.02" stroke="rgba(212, 255, 120, 1)" stroke-width="1.5"></path><path d="M2023.32 396.37L2023.32 396.37" stroke="rgba(212, 255, 120, 1)" stroke-width="1.5"></path><path d="M2023.32 396.37L2021.75 544.72" stroke="rgba(212, 255, 120, 1)" stroke-width="1.5"></path><path d="M2021.75 544.72L2021.75 544.72" stroke="rgba(212, 255, 120, 1)" stroke-width="1.5"></path><path d="M2021.75 544.72L2058.32 652.64" stroke="rgba(212, 255, 120, 1)" stroke-width="1.5"></path><path d="M2021.75 544.72L1867.52 672.2" stroke="rgba(212, 255, 120, 1)" stroke-width="1.5"></path><path d="M2058.32 652.64L2058.32 652.64" stroke="rgba(212, 255, 120, 1)" stroke-width="1.5"></path><path d="M2058.32 652.64L2001.01 817.63" stroke="rgba(212, 255, 120, 1)" stroke-width="1.5"></path><path d="M2058.32 652.64L1875.05 493.52" stroke="rgba(212, 255, 120, 1)" stroke-width="1.5"></path><path d="M2001.01 817.63L2001.01 817.63" stroke="rgba(212, 255, 120, 1)" stroke-width="1.5"></path><circle r="5" cx="-56.52" cy="547.23" fill="rgba(212, 255, 120, 1)"></circle><circle r="5" cx="-75.53" cy="697.73" fill="rgba(212, 255, 120, 1)"></circle><circle r="5" cx="-39.1" cy="803.84" fill="rgba(212, 255, 120, 1)"></circle><circle r="5" cx="76.65" cy="507.82" fill="rgba(212, 255, 120, 1)"></circle><circle r="5" cx="77.28" cy="672.39" fill="rgba(212, 255, 120, 1)"></circle><circle r="5" cx="213.75" cy="545.74" fill="rgba(212, 255, 120, 1)"></circle><circle r="5" cx="210.85" cy="846.19" fill="rgba(212, 255, 120, 1)"></circle><circle r="5" cx="348.91" cy="519.98" fill="rgba(212, 255, 120, 1)"></circle><circle r="5" cx="405.08" cy="646.76" fill="rgba(212, 255, 120, 1)"></circle><circle r="5" cx="405.33" cy="802.54" fill="rgba(212, 255, 120, 1)"></circle><circle r="5" cx="512.51" cy="538.79" fill="rgba(212, 255, 120, 1)"></circle><circle r="5" cx="496.35" cy="671.84" fill="rgba(212, 255, 120, 1)"></circle><circle r="5" cx="522.15" cy="797.88" fill="rgba(212, 255, 120, 1)"></circle><circle r="5" cx="666.15" cy="343.52" fill="rgba(212, 255, 120, 1)"></circle><circle r="5" cx="690.75" cy="512.36" fill="rgba(212, 255, 120, 1)"></circle><circle r="5" cx="675.6" cy="809.12" fill="rgba(212, 255, 120, 1)"></circle><circle r="5" cx="834.94" cy="396.11" fill="rgba(212, 255, 120, 1)"></circle><circle r="5" cx="815.74" cy="560.59" fill="rgba(212, 255, 120, 1)"></circle><circle r="5" cx="808.24" cy="659.54" fill="rgba(212, 255, 120, 1)"></circle><circle r="5" cx="856.41" cy="824.08" fill="rgba(212, 255, 120, 1)"></circle><circle r="5" cx="950.19" cy="251.64" fill="rgba(212, 255, 120, 1)"></circle><circle r="5" cx="981" cy="405.98" fill="rgba(212, 255, 120, 1)"></circle><circle r="5" cx="991.55" cy="501.03" fill="rgba(212, 255, 120, 1)"></circle><circle r="5" cx="942.45" cy="647.76" fill="rgba(212, 255, 120, 1)"></circle><circle r="5" cx="943.35" cy="835.81" fill="rgba(212, 255, 120, 1)"></circle><circle r="5" cx="1106.64" cy="259.11" fill="rgba(212, 255, 120, 1)"></circle><circle r="5" cx="1158.08" cy="492.2" fill="rgba(212, 255, 120, 1)"></circle><circle r="5" cx="1115.59" cy="701.15" fill="rgba(212, 255, 120, 1)"></circle><circle r="5" cx="1094.41" cy="808.14" fill="rgba(212, 255, 120, 1)"></circle><circle r="5" cx="1272.69" cy="-109.02" fill="rgba(212, 255, 120, 1)"></circle><circle r="5" cx="1283.06" cy="82.49" fill="rgba(212, 255, 120, 1)"></circle><circle r="5" cx="1285.25" cy="259.57" fill="rgba(212, 255, 120, 1)"></circle><circle r="5" cx="1258.2" cy="350.56" fill="rgba(212, 255, 120, 1)"></circle><circle r="5" cx="1287.65" cy="525.38" fill="rgba(212, 255, 120, 1)"></circle><circle r="5" cx="1308.31" cy="702.16" fill="rgba(212, 255, 120, 1)"></circle><circle r="5" cx="1294.25" cy="825.48" fill="rgba(212, 255, 120, 1)"></circle><circle r="5" cx="1429.6" cy="-64.37" fill="rgba(212, 255, 120, 1)"></circle><circle r="5" cx="1427.39" cy="65.4" fill="rgba(212, 255, 120, 1)"></circle><circle r="5" cx="1406.52" cy="262.23" fill="rgba(212, 255, 120, 1)"></circle><circle r="5" cx="1409.3" cy="398.44" fill="rgba(212, 255, 120, 1)"></circle><circle r="5" cx="1455.13" cy="547.93" fill="rgba(212, 255, 120, 1)"></circle><circle r="5" cx="1410.49" cy="678.6" fill="rgba(212, 255, 120, 1)"></circle><circle r="5" cx="1461.96" cy="793.14" fill="rgba(212, 255, 120, 1)"></circle><circle r="5" cx="1571.62" cy="-80.1" fill="rgba(212, 255, 120, 1)"></circle><circle r="5" cx="1570.14" cy="58.77" fill="rgba(212, 255, 120, 1)"></circle><circle r="5" cx="1540.14" cy="234.51" fill="rgba(212, 255, 120, 1)"></circle><circle r="5" cx="1591.91" cy="409.51" fill="rgba(212, 255, 120, 1)"></circle><circle r="5" cx="1572.02" cy="490.51" fill="rgba(212, 255, 120, 1)"></circle><circle r="5" cx="1573.86" cy="697.83" fill="rgba(212, 255, 120, 1)"></circle><circle r="5" cx="1586.96" cy="796.54" fill="rgba(212, 255, 120, 1)"></circle><circle r="5" cx="1719.47" cy="-93.35" fill="rgba(212, 255, 120, 1)"></circle><circle r="5" cx="1743.26" cy="106.13" fill="rgba(212, 255, 120, 1)"></circle><circle r="5" cx="1744.37" cy="196.6" fill="rgba(212, 255, 120, 1)"></circle><circle r="5" cx="1706.4" cy="340.97" fill="rgba(212, 255, 120, 1)"></circle><circle r="5" cx="1698.68" cy="532.39" fill="rgba(212, 255, 120, 1)"></circle><circle r="5" cx="1699.15" cy="677.73" fill="rgba(212, 255, 120, 1)"></circle><circle r="5" cx="1741.5" cy="832.91" fill="rgba(212, 255, 120, 1)"></circle><circle r="5" cx="1884.41" cy="-107.05" fill="rgba(212, 255, 120, 1)"></circle><circle r="5" cx="1896.32" cy="69.66" fill="rgba(212, 255, 120, 1)"></circle><circle r="5" cx="1858.89" cy="213.02" fill="rgba(212, 255, 120, 1)"></circle><circle r="5" cx="1844.4" cy="407.04" fill="rgba(212, 255, 120, 1)"></circle><circle r="5" cx="1875.05" cy="493.52" fill="rgba(212, 255, 120, 1)"></circle><circle r="5" cx="1867.52" cy="672.2" fill="rgba(212, 255, 120, 1)"></circle><circle r="5" cx="1870.79" cy="850.07" fill="rgba(212, 255, 120, 1)"></circle><circle r="5" cx="2061.22" cy="-94.92" fill="rgba(212, 255, 120, 1)"></circle><circle r="5" cx="1994.03" cy="47.66" fill="rgba(212, 255, 120, 1)"></circle><circle r="5" cx="2023.32" cy="396.37" fill="rgba(212, 255, 120, 1)"></circle><circle r="5" cx="2021.75" cy="544.72" fill="rgba(212, 255, 120, 1)"></circle><circle r="5" cx="2058.32" cy="652.64" fill="rgba(212, 255, 120, 1)"></circle><circle r="5" cx="2001.01" cy="817.63" fill="rgba(212, 255, 120, 1)"></circle><path d="M410.08 793.14L410.08 793.14" stroke="hsl(0, 0%, 100%)" stroke-width="1.5"></path><path d="M410.08 793.14L392.09 663.87" stroke="hsl(0, 0%, 100%)" stroke-width="1.5"></path><path d="M410.08 793.14L555.2 793.71" stroke="hsl(0, 0%, 100%)" stroke-width="1.5"></path><path d="M410.08 793.14L516.17 668.85" stroke="hsl(0, 0%, 100%)" stroke-width="1.5"></path><path d="M516.17 668.85L516.17 668.85" stroke="hsl(0, 0%, 100%)" stroke-width="1.5"></path><path d="M516.17 668.85L392.09 663.87" stroke="hsl(0, 0%, 100%)" stroke-width="1.5"></path><path d="M516.17 668.85L555.2 793.71" stroke="hsl(0, 0%, 100%)" stroke-width="1.5"></path><path d="M516.17 668.85L659.64 681.78" stroke="hsl(0, 0%, 100%)" stroke-width="1.5"></path><path d="M516.17 668.85L692.12 509.98" stroke="hsl(0, 0%, 100%)" stroke-width="1.5"></path><path d="M1010.88 531.09L1010.88 531.09" stroke="hsl(0, 0%, 100%)" stroke-width="1.5"></path><path d="M1010.88 531.09L991.41 666.72" stroke="hsl(0, 0%, 100%)" stroke-width="1.5"></path><path d="M1010.88 531.09L818.19 491.02" stroke="hsl(0, 0%, 100%)" stroke-width="1.5"></path><path d="M1010.88 531.09L855.27 672.97" stroke="hsl(0, 0%, 100%)" stroke-width="1.5"></path><path d="M1010.88 531.09L1121.88 710.77" stroke="hsl(0, 0%, 100%)" stroke-width="1.5"></path><path d="M1546.77 340.81L1546.77 340.81" stroke="hsl(0, 0%, 100%)" stroke-width="1.5"></path><path d="M1546.77 340.81L1569.34 253.23" stroke="hsl(0, 0%, 100%)" stroke-width="1.5"></path><path d="M1546.77 340.81L1441 367.73" stroke="hsl(0, 0%, 100%)" stroke-width="1.5"></path><path d="M1546.77 340.81L1592.98 494.75" stroke="hsl(0, 0%, 100%)" stroke-width="1.5"></path><path d="M1546.77 340.81L1716.79 376.35" stroke="hsl(0, 0%, 100%)" stroke-width="1.5"></path><path d="M1546.77 340.81L1422.62 488.99" stroke="hsl(0, 0%, 100%)" stroke-width="1.5"></path><path d="M1743.59 257.91L1743.59 257.91" stroke="hsl(0, 0%, 100%)" stroke-width="1.5"></path><path d="M1743.59 257.91L1716.79 376.35" stroke="hsl(0, 0%, 100%)" stroke-width="1.5"></path><path d="M1743.59 257.91L1884.84 348.12" stroke="hsl(0, 0%, 100%)" stroke-width="1.5"></path><path d="M1743.59 257.91L1569.34 253.23" stroke="hsl(0, 0%, 100%)" stroke-width="1.5"></path><path d="M1743.59 257.91L1845.23 73.41" stroke="hsl(0, 0%, 100%)" stroke-width="1.5"></path><path d="M1743.59 257.91L1546.77 340.81" stroke="hsl(0, 0%, 100%)" stroke-width="1.5"></path><path d="M1743.59 257.91L2002.9 254.3" stroke="hsl(0, 0%, 100%)" stroke-width="1.5"></path><path d="M1716.79 376.35L1716.79 376.35" stroke="hsl(0, 0%, 100%)" stroke-width="1.5"></path><path d="M1735.65 859.56L1735.65 859.56" stroke="hsl(0, 0%, 100%)" stroke-width="1.5"></path><path d="M1735.65 859.56L1842.03 857.5" stroke="hsl(0, 0%, 100%)" stroke-width="1.5"></path><path d="M1735.65 859.56L1606.37 832.3" stroke="hsl(0, 0%, 100%)" stroke-width="1.5"></path><path d="M1845.23 73.41L1845.23 73.41" stroke="hsl(0, 0%, 100%)" stroke-width="1.5"></path><path d="M1845.23 73.41L1857.6 -53.41" stroke="hsl(0, 0%, 100%)" stroke-width="1.5"></path><path d="M1845.23 73.41L2026.71 47.4" stroke="hsl(0, 0%, 100%)" stroke-width="1.5"></path><path d="M1845.23 73.41L1761.36 -106.48" stroke="hsl(0, 0%, 100%)" stroke-width="1.5"></path><path d="M1845.23 73.41L2002.9 254.3" stroke="hsl(0, 0%, 100%)" stroke-width="1.5"></path><path d="M2028.14 340.57L2028.14 340.57" stroke="hsl(0, 0%, 100%)" stroke-width="1.5"></path><path d="M2028.14 340.57L2002.9 254.3" stroke="hsl(0, 0%, 100%)" stroke-width="1.5"></path><path d="M2028.14 340.57L1884.84 348.12" stroke="hsl(0, 0%, 100%)" stroke-width="1.5"></path><path d="M2028.14 340.57L1873.06 513.19" stroke="hsl(0, 0%, 100%)" stroke-width="1.5"></path><path d="M2028.14 340.57L2026.71 47.4" stroke="hsl(0, 0%, 100%)" stroke-width="1.5"></path><path d="M2025.42 642.62L2025.42 642.62" stroke="hsl(0, 0%, 100%)" stroke-width="1.5"></path><path d="M2025.42 642.62L1875.5 668.62" stroke="hsl(0, 0%, 100%)" stroke-width="1.5"></path><path d="M2025.42 642.62L1991.06 827.98" stroke="hsl(0, 0%, 100%)" stroke-width="1.5"></path><path d="M2025.42 642.62L1873.06 513.19" stroke="hsl(0, 0%, 100%)" stroke-width="1.5"></path><path d="M2025.42 642.62L1842.03 857.5" stroke="hsl(0, 0%, 100%)" stroke-width="1.5"></path><path d="M2025.42 642.62L1755.89 535.86" stroke="hsl(0, 0%, 100%)" stroke-width="1.5"></path><path d="M2025.42 642.62L2028.14 340.57" stroke="hsl(0, 0%, 100%)" stroke-width="1.5"></path><path d="M-40.76 805.6L-40.76 805.6" stroke="hsl(0, 0%, 100%)" stroke-width="1.5"></path><path d="M-40.76 805.6L72.66 684.4" stroke="hsl(0, 0%, 100%)" stroke-width="1.5"></path><path d="M-40.76 805.6L195.53 860.27" stroke="hsl(0, 0%, 100%)" stroke-width="1.5"></path><path d="M72.66 684.4L72.66 684.4" stroke="hsl(0, 0%, 100%)" stroke-width="1.5"></path><path d="M72.66 684.4L235.16 643.79" stroke="hsl(0, 0%, 100%)" stroke-width="1.5"></path><path d="M249.74 560.92L249.74 560.92" stroke="hsl(0, 0%, 100%)" stroke-width="1.5"></path><path d="M249.74 560.92L235.16 643.79" stroke="hsl(0, 0%, 100%)" stroke-width="1.5"></path><path d="M249.74 560.92L392.09 663.87" stroke="hsl(0, 0%, 100%)" stroke-width="1.5"></path><path d="M249.74 560.92L72.66 684.4" stroke="hsl(0, 0%, 100%)" stroke-width="1.5"></path><path d="M249.74 560.92L410.08 793.14" stroke="hsl(0, 0%, 100%)" stroke-width="1.5"></path><path d="M249.74 560.92L516.17 668.85" stroke="hsl(0, 0%, 100%)" stroke-width="1.5"></path><path d="M249.74 560.92L195.53 860.27" stroke="hsl(0, 0%, 100%)" stroke-width="1.5"></path><path d="M235.16 643.79L235.16 643.79" stroke="hsl(0, 0%, 100%)" stroke-width="1.5"></path><path d="M235.16 643.79L392.09 663.87" stroke="hsl(0, 0%, 100%)" stroke-width="1.5"></path><path d="M235.16 643.79L195.53 860.27" stroke="hsl(0, 0%, 100%)" stroke-width="1.5"></path><path d="M235.16 643.79L410.08 793.14" stroke="hsl(0, 0%, 100%)" stroke-width="1.5"></path><path d="M235.16 643.79L516.17 668.85" stroke="hsl(0, 0%, 100%)" stroke-width="1.5"></path><path d="M195.53 860.27L195.53 860.27" stroke="hsl(0, 0%, 100%)" stroke-width="1.5"></path><path d="M195.53 860.27L72.66 684.4" stroke="hsl(0, 0%, 100%)" stroke-width="1.5"></path><path d="M195.53 860.27L410.08 793.14" stroke="hsl(0, 0%, 100%)" stroke-width="1.5"></path><path d="M392.09 663.87L392.09 663.87" stroke="hsl(0, 0%, 100%)" stroke-width="1.5"></path><path d="M555.2 793.71L555.2 793.71" stroke="hsl(0, 0%, 100%)" stroke-width="1.5"></path><path d="M692.12 509.98L692.12 509.98" stroke="hsl(0, 0%, 100%)" stroke-width="1.5"></path><path d="M692.12 509.98L818.19 491.02" stroke="hsl(0, 0%, 100%)" stroke-width="1.5"></path><path d="M692.12 509.98L659.64 681.78" stroke="hsl(0, 0%, 100%)" stroke-width="1.5"></path><path d="M692.12 509.98L855.27 672.97" stroke="hsl(0, 0%, 100%)" stroke-width="1.5"></path><path d="M692.12 509.98L555.2 793.71" stroke="hsl(0, 0%, 100%)" stroke-width="1.5"></path><path d="M692.12 509.98L1010.88 531.09" stroke="hsl(0, 0%, 100%)" stroke-width="1.5"></path><path d="M659.64 681.78L659.64 681.78" stroke="hsl(0, 0%, 100%)" stroke-width="1.5"></path><path d="M659.64 681.78L555.2 793.71" stroke="hsl(0, 0%, 100%)" stroke-width="1.5"></path><path d="M659.64 681.78L694.3 837.05" stroke="hsl(0, 0%, 100%)" stroke-width="1.5"></path><path d="M659.64 681.78L855.27 672.97" stroke="hsl(0, 0%, 100%)" stroke-width="1.5"></path><path d="M694.3 837.05L694.3 837.05" stroke="hsl(0, 0%, 100%)" stroke-width="1.5"></path><path d="M694.3 837.05L555.2 793.71" stroke="hsl(0, 0%, 100%)" stroke-width="1.5"></path><path d="M694.3 837.05L844.22 845.54" stroke="hsl(0, 0%, 100%)" stroke-width="1.5"></path><path d="M818.19 491.02L818.19 491.02" stroke="hsl(0, 0%, 100%)" stroke-width="1.5"></path><path d="M818.19 491.02L855.27 672.97" stroke="hsl(0, 0%, 100%)" stroke-width="1.5"></path><path d="M855.27 672.97L855.27 672.97" stroke="hsl(0, 0%, 100%)" stroke-width="1.5"></path><path d="M855.27 672.97L991.41 666.72" stroke="hsl(0, 0%, 100%)" stroke-width="1.5"></path><path d="M855.27 672.97L957.06 811.79" stroke="hsl(0, 0%, 100%)" stroke-width="1.5"></path><path d="M855.27 672.97L844.22 845.54" stroke="hsl(0, 0%, 100%)" stroke-width="1.5"></path><path d="M844.22 845.54L844.22 845.54" stroke="hsl(0, 0%, 100%)" stroke-width="1.5"></path><path d="M844.22 845.54L957.06 811.79" stroke="hsl(0, 0%, 100%)" stroke-width="1.5"></path><path d="M991.41 666.72L991.41 666.72" stroke="hsl(0, 0%, 100%)" stroke-width="1.5"></path><path d="M991.41 666.72L1121.88 710.77" stroke="hsl(0, 0%, 100%)" stroke-width="1.5"></path><path d="M991.41 666.72L957.06 811.79" stroke="hsl(0, 0%, 100%)" stroke-width="1.5"></path><path d="M991.41 666.72L1108.25 829.46" stroke="hsl(0, 0%, 100%)" stroke-width="1.5"></path><path d="M991.41 666.72L844.22 845.54" stroke="hsl(0, 0%, 100%)" stroke-width="1.5"></path><path d="M957.06 811.79L957.06 811.79" stroke="hsl(0, 0%, 100%)" stroke-width="1.5"></path><path d="M957.06 811.79L1108.25 829.46" stroke="hsl(0, 0%, 100%)" stroke-width="1.5"></path><path d="M1121.88 710.77L1121.88 710.77" stroke="hsl(0, 0%, 100%)" stroke-width="1.5"></path><path d="M1121.88 710.77L1108.25 829.46" stroke="hsl(0, 0%, 100%)" stroke-width="1.5"></path><path d="M1121.88 710.77L1247.05 839.89" stroke="hsl(0, 0%, 100%)" stroke-width="1.5"></path><path d="M1108.25 829.46L1108.25 829.46" stroke="hsl(0, 0%, 100%)" stroke-width="1.5"></path><path d="M1108.25 829.46L1247.05 839.89" stroke="hsl(0, 0%, 100%)" stroke-width="1.5"></path><path d="M1252.62 408.25L1252.62 408.25" stroke="hsl(0, 0%, 100%)" stroke-width="1.5"></path><path d="M1252.62 408.25L1244 489.89" stroke="hsl(0, 0%, 100%)" stroke-width="1.5"></path><path d="M1252.62 408.25L1422.62 488.99" stroke="hsl(0, 0%, 100%)" stroke-width="1.5"></path><path d="M1252.62 408.25L1441 367.73" stroke="hsl(0, 0%, 100%)" stroke-width="1.5"></path><path d="M1252.62 408.25L1010.88 531.09" stroke="hsl(0, 0%, 100%)" stroke-width="1.5"></path><path d="M1252.62 408.25L1546.77 340.81" stroke="hsl(0, 0%, 100%)" stroke-width="1.5"></path><path d="M1252.62 408.25L1302.48 707.59" stroke="hsl(0, 0%, 100%)" stroke-width="1.5"></path><path d="M1244 489.89L1244 489.89" stroke="hsl(0, 0%, 100%)" stroke-width="1.5"></path><path d="M1244 489.89L1422.62 488.99" stroke="hsl(0, 0%, 100%)" stroke-width="1.5"></path><path d="M1244 489.89L1302.48 707.59" stroke="hsl(0, 0%, 100%)" stroke-width="1.5"></path><path d="M1244 489.89L1441 367.73" stroke="hsl(0, 0%, 100%)" stroke-width="1.5"></path><path d="M1244 489.89L1010.88 531.09" stroke="hsl(0, 0%, 100%)" stroke-width="1.5"></path><path d="M1302.48 707.59L1302.48 707.59" stroke="hsl(0, 0%, 100%)" stroke-width="1.5"></path><path d="M1302.48 707.59L1438.84 700.91" stroke="hsl(0, 0%, 100%)" stroke-width="1.5"></path><path d="M1302.48 707.59L1247.05 839.89" stroke="hsl(0, 0%, 100%)" stroke-width="1.5"></path><path d="M1302.48 707.59L1410.68 849.03" stroke="hsl(0, 0%, 100%)" stroke-width="1.5"></path><path d="M1302.48 707.59L1121.88 710.77" stroke="hsl(0, 0%, 100%)" stroke-width="1.5"></path><path d="M1247.05 839.89L1247.05 839.89" stroke="hsl(0, 0%, 100%)" stroke-width="1.5"></path><path d="M1247.05 839.89L1410.68 849.03" stroke="hsl(0, 0%, 100%)" stroke-width="1.5"></path><path d="M1247.05 839.89L1438.84 700.91" stroke="hsl(0, 0%, 100%)" stroke-width="1.5"></path><path d="M1247.05 839.89L957.06 811.79" stroke="hsl(0, 0%, 100%)" stroke-width="1.5"></path><path d="M1441 367.73L1441 367.73" stroke="hsl(0, 0%, 100%)" stroke-width="1.5"></path><path d="M1441 367.73L1422.62 488.99" stroke="hsl(0, 0%, 100%)" stroke-width="1.5"></path><path d="M1422.62 488.99L1422.62 488.99" stroke="hsl(0, 0%, 100%)" stroke-width="1.5"></path><path d="M1422.62 488.99L1592.98 494.75" stroke="hsl(0, 0%, 100%)" stroke-width="1.5"></path><path d="M1438.84 700.91L1438.84 700.91" stroke="hsl(0, 0%, 100%)" stroke-width="1.5"></path><path d="M1438.84 700.91L1560.59 671.76" stroke="hsl(0, 0%, 100%)" stroke-width="1.5"></path><path d="M1438.84 700.91L1410.68 849.03" stroke="hsl(0, 0%, 100%)" stroke-width="1.5"></path><path d="M1410.68 849.03L1410.68 849.03" stroke="hsl(0, 0%, 100%)" stroke-width="1.5"></path><path d="M1410.68 849.03L1606.37 832.3" stroke="hsl(0, 0%, 100%)" stroke-width="1.5"></path><path d="M1410.68 849.03L1560.59 671.76" stroke="hsl(0, 0%, 100%)" stroke-width="1.5"></path><path d="M1410.68 849.03L1108.25 829.46" stroke="hsl(0, 0%, 100%)" stroke-width="1.5"></path><path d="M1561.64 -61.28L1561.64 -61.28" stroke="hsl(0, 0%, 100%)" stroke-width="1.5"></path><path d="M1561.64 -61.28L1761.36 -106.48" stroke="hsl(0, 0%, 100%)" stroke-width="1.5"></path><path d="M1561.64 -61.28L1857.6 -53.41" stroke="hsl(0, 0%, 100%)" stroke-width="1.5"></path><path d="M1569.34 253.23L1569.34 253.23" stroke="hsl(0, 0%, 100%)" stroke-width="1.5"></path><path d="M1569.34 253.23L1441 367.73" stroke="hsl(0, 0%, 100%)" stroke-width="1.5"></path><path d="M1592.98 494.75L1592.98 494.75" stroke="hsl(0, 0%, 100%)" stroke-width="1.5"></path><path d="M1592.98 494.75L1755.89 535.86" stroke="hsl(0, 0%, 100%)" stroke-width="1.5"></path><path d="M1560.59 671.76L1560.59 671.76" stroke="hsl(0, 0%, 100%)" stroke-width="1.5"></path><path d="M1560.59 671.76L1707.98 657.13" stroke="hsl(0, 0%, 100%)" stroke-width="1.5"></path><path d="M1560.59 671.76L1606.37 832.3" stroke="hsl(0, 0%, 100%)" stroke-width="1.5"></path><path d="M1606.37 832.3L1606.37 832.3" stroke="hsl(0, 0%, 100%)" stroke-width="1.5"></path><path d="M1606.37 832.3L1707.98 657.13" stroke="hsl(0, 0%, 100%)" stroke-width="1.5"></path><path d="M1606.37 832.3L1438.84 700.91" stroke="hsl(0, 0%, 100%)" stroke-width="1.5"></path><path d="M1761.36 -106.48L1761.36 -106.48" stroke="hsl(0, 0%, 100%)" stroke-width="1.5"></path><path d="M1761.36 -106.48L1857.6 -53.41" stroke="hsl(0, 0%, 100%)" stroke-width="1.5"></path><path d="M1755.89 535.86L1755.89 535.86" stroke="hsl(0, 0%, 100%)" stroke-width="1.5"></path><path d="M1755.89 535.86L1873.06 513.19" stroke="hsl(0, 0%, 100%)" stroke-width="1.5"></path><path d="M1755.89 535.86L1707.98 657.13" stroke="hsl(0, 0%, 100%)" stroke-width="1.5"></path><path d="M1755.89 535.86L1716.79 376.35" stroke="hsl(0, 0%, 100%)" stroke-width="1.5"></path><path d="M1755.89 535.86L1875.5 668.62" stroke="hsl(0, 0%, 100%)" stroke-width="1.5"></path><path d="M1755.89 535.86L1884.84 348.12" stroke="hsl(0, 0%, 100%)" stroke-width="1.5"></path><path d="M1707.98 657.13L1707.98 657.13" stroke="hsl(0, 0%, 100%)" stroke-width="1.5"></path><path d="M1707.98 657.13L1875.5 668.62" stroke="hsl(0, 0%, 100%)" stroke-width="1.5"></path><path d="M1857.6 -53.41L1857.6 -53.41" stroke="hsl(0, 0%, 100%)" stroke-width="1.5"></path><path d="M1857.6 -53.41L2037.79 -98.8" stroke="hsl(0, 0%, 100%)" stroke-width="1.5"></path><path d="M1857.6 -53.41L2026.71 47.4" stroke="hsl(0, 0%, 100%)" stroke-width="1.5"></path><path d="M1857.6 -53.41L1743.59 257.91" stroke="hsl(0, 0%, 100%)" stroke-width="1.5"></path><path d="M1884.84 348.12L1884.84 348.12" stroke="hsl(0, 0%, 100%)" stroke-width="1.5"></path><path d="M1884.84 348.12L2002.9 254.3" stroke="hsl(0, 0%, 100%)" stroke-width="1.5"></path><path d="M1884.84 348.12L1873.06 513.19" stroke="hsl(0, 0%, 100%)" stroke-width="1.5"></path><path d="M1884.84 348.12L1716.79 376.35" stroke="hsl(0, 0%, 100%)" stroke-width="1.5"></path><path d="M1873.06 513.19L1873.06 513.19" stroke="hsl(0, 0%, 100%)" stroke-width="1.5"></path><path d="M1873.06 513.19L1875.5 668.62" stroke="hsl(0, 0%, 100%)" stroke-width="1.5"></path><path d="M1875.5 668.62L1875.5 668.62" stroke="hsl(0, 0%, 100%)" stroke-width="1.5"></path><path d="M1842.03 857.5L1842.03 857.5" stroke="hsl(0, 0%, 100%)" stroke-width="1.5"></path><path d="M1842.03 857.5L1991.06 827.98" stroke="hsl(0, 0%, 100%)" stroke-width="1.5"></path><path d="M1842.03 857.5L1875.5 668.62" stroke="hsl(0, 0%, 100%)" stroke-width="1.5"></path><path d="M1842.03 857.5L1606.37 832.3" stroke="hsl(0, 0%, 100%)" stroke-width="1.5"></path><path d="M2037.79 -98.8L2037.79 -98.8" stroke="hsl(0, 0%, 100%)" stroke-width="1.5"></path><path d="M2037.79 -98.8L2026.71 47.4" stroke="hsl(0, 0%, 100%)" stroke-width="1.5"></path><path d="M2037.79 -98.8L1845.23 73.41" stroke="hsl(0, 0%, 100%)" stroke-width="1.5"></path><path d="M2037.79 -98.8L1761.36 -106.48" stroke="hsl(0, 0%, 100%)" stroke-width="1.5"></path><path d="M2037.79 -98.8L2002.9 254.3" stroke="hsl(0, 0%, 100%)" stroke-width="1.5"></path><path d="M2026.71 47.4L2026.71 47.4" stroke="hsl(0, 0%, 100%)" stroke-width="1.5"></path><path d="M2002.9 254.3L2002.9 254.3" stroke="hsl(0, 0%, 100%)" stroke-width="1.5"></path><path d="M2002.9 254.3L2026.71 47.4" stroke="hsl(0, 0%, 100%)" stroke-width="1.5"></path><path d="M1991.06 827.98L1991.06 827.98" stroke="hsl(0, 0%, 100%)" stroke-width="1.5"></path><circle r="25" cx="410.08" cy="793.14" fill="url(&quot;#SvgjsRadialGradient1101&quot;)"></circle><circle r="25" cx="516.17" cy="668.85" fill="url(&quot;#SvgjsRadialGradient1101&quot;)"></circle><circle r="25" cx="1010.88" cy="531.09" fill="url(&quot;#SvgjsRadialGradient1101&quot;)"></circle><circle r="25" cx="1546.77" cy="340.81" fill="url(&quot;#SvgjsRadialGradient1101&quot;)"></circle><circle r="25" cx="1743.59" cy="257.91" fill="url(&quot;#SvgjsRadialGradient1101&quot;)"></circle><circle r="25" cx="1716.79" cy="376.35" fill="url(&quot;#SvgjsRadialGradient1101&quot;)"></circle><circle r="25" cx="1735.65" cy="859.56" fill="url(&quot;#SvgjsRadialGradient1101&quot;)"></circle><circle r="25" cx="1845.23" cy="73.41" fill="url(&quot;#SvgjsRadialGradient1101&quot;)"></circle><circle r="25" cx="2028.14" cy="340.57" fill="url(&quot;#SvgjsRadialGradient1101&quot;)"></circle><circle r="25" cx="2025.42" cy="642.62" fill="url(&quot;#SvgjsRadialGradient1101&quot;)"></circle><circle r="5" cx="-40.76" cy="805.6" fill="#ffffff"></circle><circle r="5" cx="72.66" cy="684.4" fill="#ffffff"></circle><circle r="5" cx="249.74" cy="560.92" fill="#ffffff"></circle><circle r="5" cx="235.16" cy="643.79" fill="#ffffff"></circle><circle r="5" cx="195.53" cy="860.27" fill="#ffffff"></circle><circle r="5" cx="392.09" cy="663.87" fill="#ffffff"></circle><circle r="5" cx="555.2" cy="793.71" fill="#ffffff"></circle><circle r="5" cx="692.12" cy="509.98" fill="#ffffff"></circle><circle r="5" cx="659.64" cy="681.78" fill="#ffffff"></circle><circle r="5" cx="694.3" cy="837.05" fill="#ffffff"></circle><circle r="5" cx="818.19" cy="491.02" fill="#ffffff"></circle><circle r="5" cx="855.27" cy="672.97" fill="#ffffff"></circle><circle r="5" cx="844.22" cy="845.54" fill="#ffffff"></circle><circle r="5" cx="991.41" cy="666.72" fill="#ffffff"></circle><circle r="5" cx="957.06" cy="811.79" fill="#ffffff"></circle><circle r="5" cx="1121.88" cy="710.77" fill="#ffffff"></circle><circle r="5" cx="1108.25" cy="829.46" fill="#ffffff"></circle><circle r="5" cx="1252.62" cy="408.25" fill="#ffffff"></circle><circle r="5" cx="1244" cy="489.89" fill="#ffffff"></circle><circle r="5" cx="1302.48" cy="707.59" fill="#ffffff"></circle><circle r="5" cx="1247.05" cy="839.89" fill="#ffffff"></circle><circle r="5" cx="1441" cy="367.73" fill="#ffffff"></circle><circle r="5" cx="1422.62" cy="488.99" fill="#ffffff"></circle><circle r="5" cx="1438.84" cy="700.91" fill="#ffffff"></circle><circle r="5" cx="1410.68" cy="849.03" fill="#ffffff"></circle><circle r="5" cx="1561.64" cy="-61.28" fill="#ffffff"></circle><circle r="5" cx="1569.34" cy="253.23" fill="#ffffff"></circle><circle r="5" cx="1592.98" cy="494.75" fill="#ffffff"></circle><circle r="5" cx="1560.59" cy="671.76" fill="#ffffff"></circle><circle r="5" cx="1606.37" cy="832.3" fill="#ffffff"></circle><circle r="5" cx="1761.36" cy="-106.48" fill="#ffffff"></circle><circle r="5" cx="1755.89" cy="535.86" fill="#ffffff"></circle><circle r="5" cx="1707.98" cy="657.13" fill="#ffffff"></circle><circle r="5" cx="1857.6" cy="-53.41" fill="#ffffff"></circle><circle r="5" cx="1884.84" cy="348.12" fill="#ffffff"></circle><circle r="5" cx="1873.06" cy="513.19" fill="#ffffff"></circle><circle r="5" cx="1875.5" cy="668.62" fill="#ffffff"></circle><circle r="5" cx="1842.03" cy="857.5" fill="#ffffff"></circle><circle r="5" cx="2037.79" cy="-98.8" fill="#ffffff"></circle><circle r="5" cx="2026.71" cy="47.4" fill="#ffffff"></circle><circle r="5" cx="2002.9" cy="254.3" fill="#ffffff"></circle><circle r="5" cx="1991.06" cy="827.98" fill="#ffffff"></circle></g><defs><mask id="SvgjsMask1100"><rect width="1908" height="700" fill="#ffffff"></rect></mask><radialGradient id="SvgjsRadialGradient1101"><stop stop-color="#ffffff" offset="0.1"></stop><stop stop-color="rgba(255, 255, 255, 1)" offset="0.2"></stop><stop stop-color="rgba(255, 255, 255, 0)" offset="1"></stop></radialGradient></defs></svg>