<svg id="visual" viewBox="0 0 900 600" width="900" height="600" xmlns="http://www.w3.org/2000/svg" xmlns:xlink="http://www.w3.org/1999/xlink" version="1.1"><rect x="0" y="0" width="900" height="600" fill="#d3f0ff"></rect><path d="M0 436L21.5 425.8C43 415.7 86 395.3 128.8 408.8C171.7 422.3 214.3 469.7 257.2 470.3C300 471 343 425 385.8 425C428.7 425 471.3 471 514.2 493C557 515 600 513 642.8 508.8C685.7 504.7 728.3 498.3 771.2 489.5C814 480.7 857 469.3 878.5 463.7L900 458L900 601L878.5 601C857 601 814 601 771.2 601C728.3 601 685.7 601 642.8 601C600 601 557 601 514.2 601C471.3 601 428.7 601 385.8 601C343 601 300 601 257.2 601C214.3 601 171.7 601 128.8 601C86 601 43 601 21.5 601L0 601Z" fill="#00b2ff" stroke-linecap="round" stroke-linejoin="miter"></path></svg>